<svg width="254" height="44" viewBox="0 0 254 44" fill="none" xmlns="http://www.w3.org/2000/svg">
    <path d="M6.63568 0.148332C6.21391 0.232688 5.3366 0.570111 4.66176 0.890663C2.08047 2.156 0.815131 4.70355 1.23691 7.72349C1.62495 10.406 2.87341 12.0931 6.97311 15.5011C10.8703 18.7404 11.8657 20.1744 11.8657 22.5532C11.8657 24.6453 11.0559 26.0793 9.3182 27.041C8.45777 27.5134 8.28906 27.5471 6.55133 27.5471C4.89795 27.5471 4.59427 27.4965 3.76759 27.1085C2.02986 26.2986 1.25378 25.1177 0.983843 22.8569C0.882616 22.0471 0.66329 21.8278 0.494579 22.3508C0.342738 22.8738 0.174026 26.906 0.292125 27.3615C0.528321 28.2894 2.8228 28.9812 5.6909 28.9812C8.64335 28.9812 10.7523 28.2557 12.3044 26.7036C14.2277 24.7802 14.97 22.0134 14.3121 19.2128C13.7722 16.952 12.3044 15.1468 8.40716 12.0256C5.60654 9.7649 4.5774 8.70202 4.02065 7.50416C3.14335 5.63146 3.64949 3.2695 5.16789 2.156C6.14642 1.44741 6.95624 1.26183 8.84581 1.34618C10.2124 1.41367 10.5835 1.49803 11.3427 1.90293C12.5743 2.57778 12.8949 3.08392 13.2998 5.05784C13.401 5.56398 13.6372 5.68208 13.7722 5.27717C13.8228 5.1422 13.8903 4.0287 13.9072 2.79711L13.924 0.55324L12.1863 0.26643C10.3136 -0.0372512 7.86728 -0.0878647 6.63568 0.148332Z" fill="black"/>
    <path d="M209.933 0.705755C209.933 0.840725 210.22 0.958823 210.692 1.00944C211.739 1.12753 212.245 1.51557 212.464 2.32539C212.599 2.79778 212.633 6.64441 212.599 14.692C212.548 25.1521 212.515 26.4343 212.262 26.991C211.941 27.7165 211.536 27.9696 210.709 27.9696C210.288 27.9696 210.102 28.0371 210.102 28.2226C210.102 28.442 210.726 28.4757 214.742 28.4757C218.554 28.4757 219.381 28.442 219.381 28.2395C219.381 28.0877 219.044 27.9864 218.2 27.9358C216.901 27.8346 216.597 27.6659 216.193 26.7886C215.956 26.2656 215.923 24.7809 215.872 14.6076C215.838 6.61066 215.872 2.79778 216.007 2.32539C216.209 1.54931 216.682 1.17815 217.694 1.00944C218.082 0.941952 218.386 0.806982 218.386 0.722626C218.369 0.621399 216.817 0.537044 214.151 0.520172C210.76 0.503301 209.933 0.537044 209.933 0.705755Z" fill="black"/>
    <path d="M225.911 0.587654C225.691 0.790108 225.995 0.975691 226.602 0.975691C226.94 0.975691 227.547 1.12753 227.935 1.29624C228.492 1.56618 228.677 1.75177 228.829 2.27477C228.964 2.73029 228.998 6.29011 228.964 14.6413C228.914 25.1521 228.88 26.4343 228.627 26.991C228.306 27.7165 227.901 27.9696 227.075 27.9696C226.653 27.9696 226.467 28.0371 226.467 28.2226C226.467 28.442 227.091 28.4757 231.022 28.4757C234.953 28.4757 235.578 28.442 235.578 28.2226C235.578 28.0371 235.358 27.9696 234.7 27.9696C234.194 27.9696 233.553 27.8346 233.216 27.6659C232.237 27.1935 232.153 26.7042 232.136 21.3223L232.119 16.6153L234.65 16.649C237.045 16.6659 237.197 16.6996 237.467 17.0539C237.636 17.2564 239.019 19.1122 240.555 21.1874C243.861 25.6245 245.346 27.261 246.696 27.919C247.624 28.3745 247.708 28.3913 250.677 28.3913C252.533 28.3913 253.748 28.3239 253.799 28.2226C253.849 28.1214 253.394 28.0033 252.702 27.9527C250.407 27.7334 248.889 26.738 246.358 23.7855C244.907 22.1153 239.964 15.9067 239.964 15.7717C239.964 15.7548 240.386 15.2656 240.909 14.7257C242.225 13.2916 243.406 11.4864 243.861 10.1367C244.469 8.41588 244.435 5.98643 243.811 4.65361C243.22 3.38827 242.006 2.10606 240.892 1.56618C239.003 0.638268 238.648 0.587654 232.102 0.537041C228.745 0.503298 225.961 0.520169 225.911 0.587654ZM237.029 2.00483C237.99 2.30851 238.328 2.52784 239.205 3.38827C239.964 4.14747 240.352 4.70422 240.622 5.41281C242.022 9.19195 241.061 13.6966 238.547 15.0294C237.94 15.3668 237.602 15.4005 235.662 15.4005C233.823 15.3837 233.351 15.3331 232.794 15.0631L232.119 14.7257V1.90361L232.625 1.80238C233.789 1.54931 235.881 1.65054 237.029 2.00483Z" fill="black"/>
    <path d="M73.2769 4.28248C73.0407 4.31622 72.3321 4.43432 71.6741 4.53555C69.4978 4.88984 67.372 5.83463 65.7355 7.16745C64.0652 8.55088 62.4287 11.3852 61.8889 13.8653C61.5346 15.4175 61.6189 18.3193 62.0407 19.8714C63.1373 23.8699 66.3091 26.9573 70.6113 28.2058C72.8214 28.8469 75.7907 29.0831 78.6419 28.8469C81.7125 28.577 82.6741 28.307 82.9778 27.5647C83.3827 26.5862 83.9563 23.2288 83.7539 23.0264C83.5008 22.7733 83.3321 22.9926 83.0959 23.8699C82.7416 25.0678 81.8981 26.1306 80.8521 26.6705C79.1649 27.531 75.5208 27.6153 72.9226 26.8561C71.1511 26.3331 69.7339 25.4558 68.2155 23.9205C65.803 21.5248 64.8413 19.146 64.8413 15.5862C64.8413 12.1951 65.668 9.83309 67.4563 8.02788C69.1266 6.34076 70.8306 5.7334 74.2048 5.58156C76.7186 5.48033 78.5913 5.75027 80.1941 6.47573C81.8981 7.2518 82.6741 8.29782 82.8766 10.0693C82.9778 10.9803 83.2984 11.3852 83.4502 10.8116C83.5008 10.6429 83.5683 9.29322 83.6021 7.80855L83.6527 5.10917L83.0622 5.05855C82.7416 5.02481 81.5775 4.8561 80.4809 4.67052C78.6082 4.36683 74.2048 4.11377 73.2769 4.28248Z" fill="black"/>
    <path d="M87.3642 4.46802C87.1618 4.95729 86.605 7.58919 86.605 8.02784C86.605 8.58459 86.8244 8.44962 87.4823 7.48796C87.8704 6.91434 88.2247 6.59379 88.6296 6.45882C88.967 6.34072 90.5866 6.22263 92.4256 6.18888L95.6311 6.1214L95.6142 16.0754C95.5974 27.8177 95.6142 27.6996 94.079 27.9527C93.7415 28.0033 93.4379 28.1551 93.3872 28.2732C93.3366 28.4251 94.2645 28.4757 97.5713 28.4757C100.895 28.4757 101.806 28.4251 101.755 28.2564C101.705 28.1383 101.215 28.0033 100.608 27.9358C99.9164 27.8515 99.4271 27.6996 99.2247 27.4972C98.6848 26.9573 98.5667 24.6966 98.6173 15.1475L98.6679 6.1214L101.283 6.17201C105.433 6.25637 106.446 6.59379 106.665 7.97723C106.715 8.33152 106.85 8.65207 106.952 8.68582C107.171 8.7533 107.357 7.47109 107.357 5.78398V4.60299L98.4823 4.65361C90.283 4.70422 88.7645 4.65361 87.7691 4.26557C87.5836 4.19808 87.4486 4.26557 87.3642 4.46802Z" fill="black"/>
    <path d="M146.751 4.34968C143.849 4.82208 141.74 5.86809 139.749 7.87576C137.303 10.3558 136.206 12.7853 136.071 16.0751C135.936 19.8037 137.117 22.9417 139.597 25.4218C141.555 27.3957 143.9 28.4586 147.122 28.8298C153.803 29.6227 159.725 25.8098 161.446 19.5844C161.867 18.0659 161.952 14.9448 161.597 13.342C160.636 8.9049 157.346 5.73312 152.571 4.60275C151.188 4.2822 148.084 4.14723 146.751 4.34968ZM150.766 5.61502C155.608 6.64416 158.51 10.8957 158.51 17.0031C158.493 20.681 157.599 23.3129 155.709 25.2025C153.904 27.0077 151.863 27.7331 149.028 27.5813C144.642 27.3451 141.369 24.5951 139.884 19.8712C139.53 18.7408 139.496 18.2853 139.496 15.6534C139.513 12.9202 139.547 12.6166 139.952 11.4862C140.508 9.91717 141.133 8.85429 142.027 7.96011C144.17 5.81747 147.51 4.9233 150.766 5.61502Z" fill="black"/>
    <path d="M168.261 4.50068C168.16 4.72001 168.093 8.44854 168.093 15.4332C168.093 21.2538 168.008 26.332 167.924 26.6863C167.722 27.5636 167.452 27.7998 166.49 27.9347C166.035 28.0022 165.646 28.1541 165.596 28.2722C165.545 28.4409 166.338 28.4746 169.392 28.4409C171.838 28.4071 173.222 28.3228 173.205 28.2216C173.188 28.1203 172.766 28.0022 172.277 27.9516C171.113 27.8166 170.708 27.5973 170.455 26.9225C170.235 26.3151 170.033 22.1311 169.881 14.3872L169.763 9.32584L170.303 9.91633C172.783 12.6157 180.493 20.5789 183.969 24.0206C187.916 27.9347 189.131 28.9639 189.418 28.6939C189.469 28.6265 189.519 23.7676 189.519 17.8627C189.519 11.9577 189.604 6.82891 189.688 6.47461C189.873 5.61418 190.143 5.37799 191.038 5.22615C191.442 5.15866 191.797 5.00682 191.847 4.88872C191.898 4.73688 191.071 4.68627 188.169 4.68627C185.251 4.68627 184.441 4.73688 184.492 4.88872C184.542 5.00682 184.947 5.15866 185.403 5.20927C185.858 5.27676 186.415 5.37799 186.634 5.44547C187.41 5.68167 187.478 6.23841 187.663 13.493C187.748 17.2215 187.832 21.1188 187.832 22.1479V24.0038L186.769 22.9071C186.196 22.2998 182.383 18.3182 178.3 14.0498C169.847 5.1924 168.852 4.18013 168.616 4.18013C168.515 4.18013 168.363 4.33197 168.261 4.50068Z" fill="black"/>
    <path d="M55.6464 4.51818C55.4609 4.60253 52.3228 4.67002 48.6786 4.67002C43.4486 4.68689 42.0483 4.7375 42.0989 4.88934C42.1495 5.00744 42.5713 5.15928 43.0774 5.22677C43.651 5.29425 44.0897 5.46296 44.3259 5.68229C44.6802 6.03658 44.6802 6.12094 44.7308 15.6194C44.7645 21.3893 44.7139 25.624 44.6127 26.282C44.4102 27.5473 44.0391 27.9691 43.1449 27.9691C42.74 27.9691 42.5713 28.0535 42.5713 28.2222C42.5713 28.4415 43.0268 28.4752 45.6587 28.4752C47.3627 28.4752 50.3489 28.5259 52.2891 28.5765C56.6756 28.7114 56.4563 28.8295 56.8274 26.3157C56.9624 25.3541 57.0467 24.4936 56.9961 24.4093C56.7937 24.0887 56.6081 24.2743 56.4225 24.9829C56.0007 26.67 55.1909 27.1424 52.5253 27.2605C50.1802 27.3449 48.8642 27.1255 48.2906 26.5182C47.8857 26.0795 47.8857 26.0795 47.8351 21.2713L47.7845 16.4461L50.5513 16.5473C54.263 16.6823 54.5836 16.8173 54.7523 18.3357C54.786 18.5719 54.8872 18.7743 54.9885 18.8081C55.2415 18.8924 55.3934 18.3019 55.3934 17.239C55.3934 16.7666 55.4777 15.9568 55.579 15.417C55.6802 14.8771 55.7139 14.4047 55.6802 14.3709C55.6296 14.3203 55.3259 14.4722 54.9885 14.6915C54.4317 15.0795 54.1786 15.1133 51.4624 15.2314C49.8596 15.2989 48.3918 15.3326 48.2231 15.282C47.9026 15.2314 47.8857 15.0458 47.8351 10.6087L47.8013 6.00284L50.7032 6.07033C52.9133 6.12094 53.7737 6.20529 54.263 6.42462C54.9041 6.69456 55.2247 7.21757 55.2247 7.97677C55.2247 8.39855 55.4946 8.68536 55.6971 8.4829C55.7645 8.43229 55.8658 7.75744 55.9164 6.99824C55.9839 6.23904 56.0851 5.32799 56.1526 4.9737C56.2707 4.33259 56.2201 4.26511 55.6464 4.51818Z" fill="black"/>
    <path d="M20.8074 4.92354C20.8074 5.07538 21.0942 5.17661 21.7522 5.22722C22.4102 5.27784 22.7813 5.41281 23.0513 5.68275L23.4224 6.05391V16.0416C23.4224 21.5248 23.355 26.3162 23.2875 26.6705C23.1019 27.5309 22.6295 27.9696 21.904 27.9696C21.4991 27.9696 21.3135 28.0539 21.3135 28.2226C21.3135 28.442 21.8872 28.4757 25.4638 28.4757C28.7031 28.4757 29.5973 28.4251 29.5467 28.2564C29.4961 28.1551 29.0574 28.0033 28.5513 27.9527C27.3197 27.8177 26.9316 27.5815 26.6954 26.8223C26.5605 26.3837 26.4761 23.195 26.4255 16.2441C26.3412 6.8806 26.358 6.25637 26.6448 6.03704C26.8642 5.85146 27.4209 5.78397 28.8043 5.78397C30.4071 5.78397 30.7951 5.83459 31.4362 6.15514C33.2921 7.06618 34.5912 9.09072 34.7599 11.3177C34.878 12.9374 34.5405 14.0002 33.5451 15.1137C32.5329 16.2441 31.335 16.8008 29.4286 17.0539C27.9608 17.2226 27.674 17.3576 28.0789 17.5938C28.3994 17.7962 30.8289 17.6782 31.8412 17.4251C34.1019 16.8346 36.0758 15.2487 36.97 13.3423C37.3243 12.5493 37.4255 12.0432 37.4761 10.7441C37.5436 9.24256 37.5099 9.02324 37.0712 8.07845C36.2783 6.27324 34.7599 5.27784 32.2461 4.85606C31.6556 4.7717 28.855 4.68735 26.0037 4.68735C21.7016 4.68735 20.8074 4.72109 20.8074 4.92354Z" fill="black"/>
    <path d="M111.439 4.8898C111.49 5.0079 111.912 5.15974 112.418 5.22722C112.992 5.29471 113.43 5.46342 113.666 5.68275C114.021 6.03704 114.021 6.1214 114.071 15.7717C114.105 25.5064 114.038 27.0923 113.531 27.6153C113.396 27.7502 113.008 27.9021 112.654 27.9527C112.3 28.0033 111.996 28.1551 111.945 28.2732C111.895 28.4251 112.789 28.4757 116.045 28.4757C119.301 28.4757 120.195 28.4251 120.145 28.2564C120.094 28.1551 119.656 28.0033 119.149 27.9527C117.142 27.7165 117.108 27.6321 117.007 22.6045C116.956 19.9895 116.99 18.6061 117.108 18.488C117.226 18.3699 118.036 18.353 119.538 18.4374L121.798 18.5555L123.131 20.3438C125.628 23.6505 127.737 26.215 128.614 27.0079C129.981 28.2395 130.875 28.4926 133.743 28.442C136.24 28.3913 136.864 28.1551 135.025 27.9358C133.001 27.6996 131.685 26.6199 127.956 22.1321C126.775 20.7318 125.476 19.1291 125.038 18.5723L124.245 17.5601L125.088 16.7334C127.146 14.7257 128.142 12.718 128.176 10.5079C128.192 9.36066 128.125 9.02324 127.72 8.21342C126.843 6.39134 125.105 5.2441 122.709 4.83919C122.203 4.75483 119.436 4.68735 116.585 4.68735C112.485 4.68735 111.389 4.73796 111.439 4.8898ZM120.769 5.8852C122.709 6.23949 124.093 7.33612 124.751 9.04011C125.071 9.81618 125.139 10.3561 125.139 11.8576C125.156 14.034 124.869 15.0631 123.975 16.126C123.064 17.172 122.254 17.4082 119.926 17.2901C118.863 17.2395 117.8 17.1045 117.53 16.9696L117.057 16.7502L117.007 11.537C116.99 7.96035 117.024 6.25637 117.159 6.10453C117.311 5.91894 117.699 5.85146 119.352 5.73336C119.588 5.71649 120.229 5.78397 120.769 5.8852Z" fill="black"/>
    <path d="M130.132 32.4398C129.694 32.9797 130.352 33.8064 130.942 33.4352C131.516 33.0641 131.313 32.1868 130.639 32.1868C130.47 32.1868 130.25 32.3049 130.132 32.4398Z" fill="#444444"/>
    <path d="M236.387 32.6089C236.151 33.1488 236.472 33.5705 237.079 33.503C237.383 33.4693 237.535 33.3343 237.568 33.0644C237.686 32.2208 236.742 31.8497 236.387 32.6089Z" fill="#444444"/>
    <path d="M166.405 32.5247C166.135 32.7947 166.068 33.0815 166.068 33.8744C166.068 34.8361 166.051 34.8867 165.646 34.8867C165.089 34.8867 165.056 35.5109 165.612 35.5953C165.984 35.6459 165.984 35.6796 166.034 38.5477L166.068 41.4665H166.911V35.5615H167.586C168.143 35.5615 168.261 35.5109 168.261 35.2241C168.261 34.9373 168.143 34.8867 167.569 34.8867H166.895L166.945 33.9925L166.996 33.1152H167.637C168.16 33.1152 168.261 33.0646 168.261 32.7609C168.261 32.1198 166.979 31.9511 166.405 32.5247Z" fill="#444444"/>
    <path d="M127.602 35.8993L126.86 35.3763C125.442 34.3809 123.654 34.5833 122.473 35.8993C120.87 37.6876 121.511 40.4376 123.755 41.3655C124.903 41.8548 126.32 41.6017 127.214 40.7582L127.602 40.4039V40.9269C127.602 41.3824 127.669 41.4668 128.024 41.4668H128.446V32.3563H127.602V35.8993ZM126.252 35.8655C128.007 36.7428 128.091 39.3916 126.387 40.4713C125.949 40.7413 125.628 40.7919 124.835 40.7413C123.924 40.6907 123.789 40.6232 123.215 39.999C122.338 39.071 122.203 38.1937 122.743 37.114C123.452 35.6799 124.886 35.1738 126.252 35.8655Z" fill="#444444"/>
    <path d="M149.197 41.4665H150.04V32.356H149.197V41.4665Z" fill="#444444"/>
    <path d="M199.304 34.1108C199.304 35.0893 199.254 35.8991 199.203 35.8991C199.152 35.8991 198.832 35.6798 198.495 35.393C197.297 34.4313 195.475 34.5663 194.31 35.6966C193.163 36.8101 192.893 38.4129 193.619 39.7963C194.631 41.7028 196.976 42.1752 198.764 40.8255L199.304 40.4206V40.9436C199.304 41.3822 199.372 41.4666 199.726 41.4666H200.148L200.114 36.9451L200.064 32.4405L199.692 32.3899C199.304 32.3393 199.304 32.3561 199.304 34.1108ZM197.955 35.8822C198.781 36.3209 199.355 37.4344 199.254 38.4466C199.136 39.8807 198.09 40.8255 196.672 40.8255C195.711 40.8255 194.935 40.37 194.462 39.5095C193.956 38.6322 193.973 37.7043 194.496 36.827C195.188 35.6292 196.706 35.2074 197.955 35.8822Z" fill="#444444"/>
    <path d="M109.044 36.1349C108.065 38.1257 107.221 39.7622 107.171 39.7622C107.12 39.7791 106.31 38.1932 105.366 36.2361C104.421 34.2791 103.594 32.6932 103.51 32.6932C103.442 32.6932 103.139 34.4984 102.818 36.6916C102.514 38.9018 102.228 40.8757 102.177 41.0781C102.109 41.3987 102.16 41.4662 102.514 41.4662C103.021 41.4662 102.987 41.5674 103.493 37.9232C103.679 36.4892 103.864 35.2744 103.898 35.2407C103.932 35.207 104.674 36.5904 105.517 38.3281C106.378 40.049 107.12 41.4662 107.171 41.4662C107.238 41.4662 107.964 40.0996 108.79 38.4294C109.617 36.7591 110.343 35.3925 110.41 35.3925C110.461 35.3925 110.68 36.7591 110.899 38.4294L111.287 41.4662H112.182L111.557 37.164C111.22 34.8021 110.899 32.7944 110.866 32.6932C110.832 32.5919 110.022 34.1441 109.044 36.1349Z" fill="#444444"/>
    <path d="M155.27 41.4665H156.114V32.5247H155.27V41.4665Z" fill="#444444"/>
    <path d="M205.496 32.626C205.428 32.6934 205.378 34.718 205.378 37.1137V41.4665H206.39L206.356 37.0293C206.306 32.7272 206.289 32.6091 205.968 32.5585C205.766 32.5247 205.563 32.5585 205.496 32.626Z" fill="#444444"/>
    <path d="M115.623 34.9882C114.257 35.5787 113.548 36.6754 113.531 38.1938C113.531 40.1339 114.712 41.4162 116.619 41.5849C117.833 41.703 118.93 41.2474 119.622 40.3364C120.06 39.7628 120.077 39.729 119.757 39.5097C119.453 39.2904 119.385 39.3241 118.913 39.8471C118.643 40.1677 118.238 40.5051 118.036 40.6063C117.513 40.8763 116.197 40.8425 115.623 40.5389C115.05 40.2352 114.442 39.3073 114.442 38.6999V38.2612H117.293C118.879 38.2612 120.195 38.2106 120.229 38.1263C120.28 38.0588 120.212 37.637 120.094 37.1984C119.605 35.3088 117.412 34.2122 115.623 34.9882ZM118.171 35.933C118.778 36.2705 119.402 37.1646 119.234 37.4514C119.183 37.5189 118.086 37.5864 116.787 37.5864H114.425L114.543 37.1984C114.999 35.7306 116.737 35.1232 118.171 35.933Z" fill="#444444"/>
    <path d="M134.856 34.9371C134.536 35.0383 133.962 35.4432 133.591 35.8144C131.33 38.0582 132.95 41.6349 136.223 41.6349C137.117 41.6349 138.281 41.1794 138.821 40.6227L139.277 40.1503L138.906 39.9478C138.602 39.7791 138.484 39.8129 138.18 40.0828C137.573 40.6395 137.117 40.7914 136.156 40.7914C135.16 40.7914 134.401 40.4033 133.777 39.5598C133.304 38.9187 133.304 37.434 133.777 36.7929C134.452 35.8819 134.958 35.6457 136.189 35.6457C137.303 35.6457 137.421 35.6794 138.501 36.4892C138.669 36.6073 138.804 36.5736 139.007 36.388C139.243 36.1349 139.209 36.0675 138.652 35.6119C137.623 34.7684 136.206 34.5153 134.856 34.9371Z" fill="#444444"/>
    <path d="M142.87 34.9201C140.761 35.6624 139.901 38.3112 141.2 40.1501C142.297 41.7023 144.136 42.0397 145.823 40.9937L146.666 40.4707V40.9768C146.666 41.3986 146.734 41.4829 147.004 41.4323C147.206 41.3986 147.358 41.3311 147.341 41.2467C147.341 41.1793 147.341 39.7283 147.341 38.0075C147.341 35.0044 147.324 34.8863 147.004 34.8863C146.734 34.8863 146.666 35.0044 146.666 35.3924C146.666 35.9661 146.481 36.0336 146.143 35.6118C145.519 34.8863 143.95 34.5489 142.87 34.9201ZM145.317 35.9323C146.616 36.8265 146.97 38.1256 146.295 39.4415C145.823 40.3526 145.08 40.825 144.068 40.825C142.6 40.825 141.588 39.8633 141.487 38.3618C141.335 36.2529 143.629 34.802 145.317 35.9323Z" fill="#444444"/>
    <path d="M160.248 34.9541C159.978 35.0722 159.59 35.3422 159.421 35.5446C158.982 36.0339 158.814 35.9833 158.814 35.3928C158.814 35.0047 158.746 34.8866 158.476 34.8866C158.156 34.8866 158.139 35.0047 158.139 38.1765C158.139 41.2639 158.156 41.4664 158.442 41.4664C158.729 41.4664 158.78 41.2639 158.864 39.3744C158.965 37.0293 159.185 36.4219 160.045 35.8989C160.653 35.5277 161.8 35.4603 162.205 35.7808C162.795 36.2195 162.913 36.7931 162.93 39.1044L162.964 41.382L163.453 41.4327L163.926 41.5001L163.824 39.0201C163.757 37.0799 163.656 36.4219 163.419 35.9495C162.863 34.8698 161.445 34.4311 160.248 34.9541Z" fill="#444444"/>
    <path d="M170.843 35.0554C170.539 35.241 170.286 35.4772 170.269 35.5953C170.252 35.7134 170.202 35.629 170.134 35.3928C170.067 35.1398 169.881 34.9542 169.645 34.9204L169.274 34.8698V41.4665H170.117V39.3576C170.117 37.0631 170.303 36.3207 170.978 35.8315C171.197 35.6796 171.534 35.5615 171.737 35.5615C172.243 35.5615 172.631 35.0891 172.294 34.8698C171.922 34.6336 171.433 34.6842 170.843 35.0554Z" fill="#444444"/>
    <path d="M175.297 34.8868C172.698 35.6629 172.175 39.4252 174.453 41.0279C175.651 41.8715 177.608 41.7534 178.468 40.7918C178.89 40.3362 179.042 40.37 179.008 40.9099C178.975 41.281 179.059 41.3991 179.363 41.4329L179.734 41.4835V38.1936C179.734 35.0049 179.717 34.8868 179.396 34.8868C179.076 34.8868 178.974 35.123 179.042 35.6798C179.093 35.9835 178.806 35.9497 178.536 35.6123C177.945 34.9037 176.41 34.5494 175.297 34.8868ZM177.709 35.9329C178.975 36.7933 179.346 37.9911 178.755 39.324C178.3 40.3362 177.574 40.7918 176.427 40.7918C175.398 40.7918 174.622 40.3362 174.132 39.4421C173.711 38.666 173.795 37.3332 174.301 36.6246C175.06 35.5617 176.68 35.2411 177.709 35.9329Z" fill="#444444"/>
    <path d="M182.855 35.241L182.264 35.764V35.3253C182.264 34.971 182.18 34.8867 181.843 34.8867H181.421V41.4665H182.264V39.5094C182.264 38.4296 182.349 37.2487 182.467 36.8775C182.703 36.1014 183.311 35.5615 183.952 35.5615C184.222 35.5615 184.458 35.4434 184.525 35.2916C184.812 34.5324 183.699 34.4987 182.855 35.241Z" fill="#444444"/>
    <path d="M186.972 35.1061C186.567 35.3254 186.01 35.8316 185.723 36.2196C185.268 36.8607 185.217 37.08 185.217 38.1767C185.217 39.2733 185.268 39.4926 185.723 40.1506C186.904 41.8546 189.384 42.1414 190.869 40.7242C191.628 40.0156 191.746 39.7119 191.375 39.4757C191.088 39.307 190.987 39.3408 190.683 39.7794C189.367 41.534 186.465 40.9267 186.044 38.8009L185.942 38.261H191.881V37.7886C191.864 37.1813 191.358 36.0678 190.852 35.6122C189.823 34.6675 188.203 34.465 186.972 35.1061ZM189.587 35.7978C190.211 36.0678 190.869 36.8101 190.869 37.2656C190.869 37.5693 190.7 37.5862 188.507 37.5862C186.972 37.5862 186.145 37.5187 186.145 37.4175C186.145 37.3162 186.263 37.0125 186.398 36.7257C186.938 35.6966 188.338 35.2748 189.587 35.7978Z" fill="#444444"/>
    <path d="M210.439 34.9036C210.203 35.0048 209.815 35.2747 209.562 35.5109L209.09 35.9664V35.4266C209.09 34.971 209.022 34.8867 208.668 34.8867H208.246V41.4665H208.651C209.056 41.4665 209.056 41.4665 209.123 39.2226C209.174 37.3836 209.225 36.9112 209.495 36.5232C210.119 35.5953 211.401 35.2747 212.127 35.8652C212.599 36.2533 212.768 37.2655 212.784 39.7287C212.801 41.4665 212.801 41.4665 213.223 41.4665H213.645V39.3407C213.645 37.198 213.729 36.81 214.37 36.1183C215.062 35.3422 216.597 35.4772 217.002 36.3376C217.104 36.5907 217.188 37.7211 217.188 39.1045V41.4665H218.031V39.0201C218.031 36.2195 217.863 35.5953 216.985 35.0554C216.682 34.8698 216.176 34.718 215.872 34.718C215.146 34.718 214.117 35.2579 213.746 35.8315L213.442 36.2701L213.122 35.764C212.582 34.853 211.469 34.4987 210.439 34.9036Z" fill="#444444"/>
    <path d="M221.659 35.0391C220.478 35.5621 219.55 36.9455 219.55 38.1771C219.55 38.9363 219.955 39.8642 220.579 40.5391C221.743 41.7875 223.481 41.9731 224.898 40.9777L225.623 40.4547V40.9608C225.623 41.3826 225.691 41.467 226.045 41.467H226.467V34.8872H226.045C225.691 34.8872 225.623 34.9716 225.623 35.3934C225.623 35.9164 225.387 36.0851 225.235 35.6633C225.083 35.2921 223.717 34.7185 222.991 34.7185C222.637 34.7185 222.03 34.8704 221.659 35.0391ZM224.56 36.0345C226.045 37.0805 225.961 39.5099 224.409 40.4547C223.734 40.8596 222.401 40.8934 221.76 40.5222C220.967 40.0498 220.478 39.1556 220.478 38.1602C220.478 37.1648 220.815 36.5743 221.76 35.9332C222.485 35.4271 223.784 35.4777 224.56 36.0345Z" fill="#444444"/>
    <path d="M229.841 35.1734C229.099 35.5615 228.829 35.8314 228.441 36.5738C228.019 37.3667 227.969 37.6366 228.036 38.4127C228.306 41.1121 231.495 42.4112 233.553 40.6734L234.059 40.2517V40.6566C234.059 41.4327 233.705 42.2931 233.216 42.7149C232.203 43.5584 230.347 43.4403 229.42 42.4787C228.964 42.0063 228.154 41.7869 228.154 42.1244C228.154 42.4618 229.099 43.3897 229.757 43.6765C230.736 44.132 232.271 44.0983 233.216 43.6259C234.7 42.8498 234.886 42.2087 234.903 37.9572V34.8866H234.481C234.127 34.8866 234.059 34.971 234.059 35.3928V35.8989L233.3 35.359C232.203 34.583 231.073 34.5323 229.841 35.1734ZM232.693 35.8652C233.486 36.2532 233.907 36.8943 234.009 37.8222C234.127 38.7839 233.857 39.4587 233.097 40.1167C232.608 40.5554 232.389 40.6228 231.545 40.6228C229.858 40.6228 228.728 39.4925 228.88 37.9403C229.065 36.1014 231.056 35.0216 232.693 35.8652Z" fill="#444444"/>
    <path d="M241.179 35.0723C240.774 35.2747 240.403 35.5447 240.352 35.6628C240.2 36.0845 239.964 35.9158 239.964 35.3928C239.964 34.971 239.896 34.8867 239.542 34.8867H239.12V41.4665H239.525C239.913 41.4665 239.93 41.4496 239.998 39.3913C240.099 36.5738 240.554 35.7471 242.123 35.5953C242.815 35.5447 243.018 35.5953 243.439 35.9496L243.929 36.3714L244.03 41.4665H244.857V39.0539C244.857 36.3376 244.688 35.764 243.692 35.106C242.967 34.6168 242.123 34.6168 241.179 35.0723Z" fill="#444444"/>
    <path d="M248.484 35.0216C247.573 35.4603 247.067 35.9833 246.679 36.8774C246.038 38.2946 246.611 40.1167 247.944 40.9434C249.125 41.6688 250.897 41.5507 251.943 40.6903L252.449 40.2517V40.6566C252.449 41.4327 252.094 42.2931 251.605 42.7149C250.593 43.5584 248.737 43.4403 247.809 42.4787C247.387 42.04 246.544 41.7701 246.544 42.0906C246.544 42.4112 247.522 43.4066 248.13 43.6765C249.125 44.132 250.66 44.0983 251.605 43.6259C253.09 42.8667 253.275 42.2087 253.292 37.8728V34.8866H252.871C252.516 34.8866 252.449 34.971 252.449 35.3928V35.8989L251.69 35.359C250.728 34.6842 249.479 34.5492 248.484 35.0216ZM251.082 35.8652C251.875 36.2532 252.297 36.8943 252.398 37.8222C252.516 38.7839 252.246 39.4587 251.487 40.1167C250.998 40.5554 250.778 40.6228 249.935 40.6228C248.248 40.6228 247.117 39.4925 247.269 37.9403C247.455 36.1014 249.446 35.0216 251.082 35.8652Z" fill="#444444"/>
    <path d="M130.301 38.1934V41.4833L130.689 41.4327C130.892 41.3989 131.061 41.2808 131.044 41.1627C131.027 41.0615 131.01 39.5937 131.01 37.9234C130.976 35.0047 130.959 34.8866 130.639 34.8866C130.318 34.8866 130.301 35.0047 130.301 38.1934Z" fill="#444444"/>
    <path d="M236.59 41.4665H237.433V34.8867H236.59V41.4665Z" fill="#444444"/>
    <rect y="36.3477" width="93.7385" height="1.91303" fill="url(#paint0_linear)"/>
    <defs>
        <linearGradient id="paint0_linear" x1="0" y1="36.3477" x2="93.7385" y2="36.3477" gradientUnits="userSpaceOnUse">
            <stop stop-color="#002073"/>
            <stop offset="0.16862" stop-color="#1093CF"/>
            <stop offset="0.373949" stop-color="#128A30"/>
            <stop offset="0.590479" stop-color="#EBD421"/>
            <stop offset="0.797053" stop-color="#E27003"/>
            <stop offset="1" stop-color="#B60200"/>
        </linearGradient>
    </defs>
</svg>
